HIERARCHY
ROOT joint_Root
{
	OFFSET 0.0 0.0 0.0
	CHANNELS 6 Xposition Yposition Zposition Zrotation Xrotation Yrotation 
	JOINT Hips
	{
		OFFSET -0.726466 93.3139 -2.00062
		CHANNELS 6 Xposition Yposition Zposition Zrotation Xrotation Yrotation 
		JOINT Spine
		{
			OFFSET 15.7357 0.0 0.0
			CHANNELS 6 Xposition Yposition Zposition Zrotation Xrotation Yrotation 
			JOINT Chest
			{
				OFFSET 8.98455 -0.406207 0.0
				CHANNELS 6 Xposition Yposition Zposition Zrotation Xrotation Yrotation 
				JOINT Neck
				{
					OFFSET 16.3773 0.0 0.0
					CHANNELS 6 Xposition Yposition Zposition Zrotation Xrotation Yrotation 
					JOINT Head
					{
						OFFSET 6.45672 0.0 0.0
						CHANNELS 6 Xposition Yposition Zposition Zrotation Xrotation Yrotation 
						End Site
						{
							OFFSET 0.0 0.0 0.0
						}
					}
				}
				JOINT Shoulder_L
				{
					OFFSET 12.9942 -0.242716 4.98039
					CHANNELS 6 Xposition Yposition Zposition Zrotation Xrotation Yrotation 
					JOINT UpperArm_L
					{
						OFFSET 5.34809 0.0 0.0
						CHANNELS 6 Xposition Yposition Zposition Zrotation Xrotation Yrotation 
						JOINT LowerArm_L
						{
							OFFSET 24.3286 1.87007e-05 0.0
							CHANNELS 6 Xposition Yposition Zposition Zrotation Xrotation Yrotation 
							JOINT Hand_L
							{
								OFFSET 22.2916 0.0 0.0
								CHANNELS 6 Xposition Yposition Zposition Zrotation Xrotation Yrotation 
								End Site
								{
									OFFSET 0.0 0.0 0.0
								}
							}
						}
					}
				}
				JOINT Shoulder_R
				{
					OFFSET 12.9945 -0.242716 -4.98039
					CHANNELS 6 Xposition Yposition Zposition Zrotation Xrotation Yrotation 
					JOINT UpperArm_R
					{
						OFFSET -5.34813 0.0 0.0
						CHANNELS 6 Xposition Yposition Zposition Zrotation Xrotation Yrotation 
						JOINT LowerArm_R
						{
							OFFSET -24.3289 0.000322201 0.0
							CHANNELS 6 Xposition Yposition Zposition Zrotation Xrotation Yrotation 
							JOINT Hand_R
							{
								OFFSET -22.2915 -0.000108084 0.0
								CHANNELS 6 Xposition Yposition Zposition Zrotation Xrotation Yrotation 
								End Site
								{
									OFFSET 0.0 0.0 0.0
								}
							}
						}
					}
				}
			}
		}
		JOINT UpperLeg_L
		{
			OFFSET -2.19248 -6.46944 0.0
			CHANNELS 6 Xposition Yposition Zposition Zrotation Xrotation Yrotation 
			JOINT LowerLeg_L
			{
				OFFSET 39.0811 0.0 -1.23785e-05
				CHANNELS 6 Xposition Yposition Zposition Zrotation Xrotation Yrotation 
				JOINT Foot_L
				{
					OFFSET 40.9854 0.0 -1.26872e-05
					CHANNELS 6 Xposition Yposition Zposition Zrotation Xrotation Yrotation 
					JOINT Toes_L
					{
						OFFSET 11.7543 0.0 0.0
						CHANNELS 6 Xposition Yposition Zposition Zrotation Xrotation Yrotation 
						End Site
						{
							OFFSET 0.0 0.0 0.0
						}
					}
				}
			}
		}
		JOINT UpperLeg_R
		{
			OFFSET -2.19251 6.46944 0.0
			CHANNELS 6 Xposition Yposition Zposition Zrotation Xrotation Yrotation 
			JOINT LowerLeg_R
			{
				OFFSET -39.0811 -0.00228153 -0.0401928
				CHANNELS 6 Xposition Yposition Zposition Zrotation Xrotation Yrotation 
				JOINT Foot_R
				{
					OFFSET -40.9854 0.0 0.0
					CHANNELS 6 Xposition Yposition Zposition Zrotation Xrotation Yrotation 
					JOINT Toes_R
					{
						OFFSET -11.7543 0.0 0.0
						CHANNELS 6 Xposition Yposition Zposition Zrotation Xrotation Yrotation 
						End Site
						{
							OFFSET 0.0 0.0 0.0
						}
					}
				}
			}
		}
	}
}
MOTION
Frames:	6
Frame Time:	0.0333333
0.000000 0.000000 0.000000 0.000000 0.000000 -0.000000 -1.033980 92.099300 -3.077550 87.638600 -1.973450 5.321420 15.735700 0.000005 -0.000001 84.623300 84.136100 -83.950200 8.984550 -0.406207 -0.000000 3.917730 -1.119970 1.383070 16.377300 -0.000001 -0.000001 5.410420 -1.136830 1.880820 6.456720 -0.000001 -0.000000 3.733840 0.084027 -2.596550 12.994200 -0.242716 4.980390 -90.227000 0.691886 -71.833100 5.348090 -0.000007 -0.000001 -64.254000 38.799800 -12.196100 24.328600 0.000019 0.000005 3.324370 6.002480 -29.050600 22.291600 -0.000001 0.000005 8.398490 5.661340 -16.214800 12.994500 -0.242716 -4.980390 87.760600 6.530380 -71.024900 -5.348130 -0.000001 -0.000004 -65.165800 31.259500 -13.247600 -24.328900 0.000322 -0.000009 0.085062 0.232676 -20.310500 -22.291500 -0.000108 -0.000004 4.000980 5.583490 -10.400900 -2.192480 -6.469440 -0.000000 -168.711000 -19.721100 -2.526180 39.081100 -0.000007 -0.000012 -0.167036 0.390369 23.165900 40.985400 -0.000006 -0.000013 -5.648360 0.363084 -62.880400 11.754300 -0.000000 0.000003 -0.000091 -0.000951 -16.614100 -2.192510 6.469440 -0.000001 173.896000 23.888600 179.983000 -39.081100 -0.002282 -0.040193 -0.048907 0.142578 20.118400 -40.985400 0.000008 0.000006 -3.287570 4.010090 -62.213500 -11.754300 -0.000006 -0.000006 -0.003571 -0.046905 -18.480900
0.000000 0.000000 0.000000 0.000000 0.000000 -0.000000 -1.030340 92.101200 -3.111770 87.634500 -2.001410 5.319900 15.735700 0.000005 -0.000001 84.844900 84.122900 -84.169600 8.984550 -0.406207 -0.000000 3.947900 -1.077120 1.386420 16.377300 -0.000001 -0.000001 5.399710 -1.126420 1.905890 6.456720 -0.000001 -0.000000 3.731090 0.020937 -2.585710 12.994200 -0.242716 4.980390 -90.225100 0.686093 -71.836100 5.348090 -0.000007 -0.000001 -63.235300 39.908500 -12.577100 24.328600 0.000019 0.000005 3.462650 6.008970 -30.028100 22.291600 -0.000001 0.000005 8.489100 5.664240 -16.571700 12.994500 -0.242716 -4.980390 87.775100 6.496210 -71.047600 -5.348130 -0.000001 -0.000004 -64.286400 31.323100 -14.079500 -24.328900 0.000322 -0.000009 0.009330 0.027435 -20.738400 -22.291500 -0.000108 -0.000004 4.133070 5.580980 -10.264400 -2.192480 -6.469440 -0.000000 -168.720000 -19.785400 -2.558180 39.081100 -0.000007 -0.000012 -0.166048 0.387716 23.184200 40.985400 -0.000006 -0.000013 -5.634030 0.331700 -62.863900 11.754300 -0.000000 0.000003 -0.000079 -0.000844 -16.610100 -2.192510 6.469440 -0.000001 173.917000 23.859500 179.940000 -39.081100 -0.002282 -0.040193 -0.048728 0.142010 20.128700 -40.985400 0.000008 0.000006 -3.249340 4.011070 -62.193500 -11.754300 -0.000006 -0.000006 -0.003571 -0.046903 -18.480800
0.000000 0.000000 0.000000 0.000000 0.000000 -0.000000 -1.026020 92.105800 -3.150260 87.613700 -2.056070 5.304380 15.735700 0.000005 -0.000001 84.913600 84.125800 -84.233300 8.984550 -0.406207 -0.000000 3.943420 -1.062800 1.395570 16.377300 -0.000001 -0.000001 5.442860 -1.128950 1.944460 6.456720 -0.000001 -0.000000 3.725330 -0.022753 -2.588480 12.994200 -0.242716 4.980390 -90.217500 0.662303 -71.816700 5.348090 -0.000007 -0.000001 -61.865300 41.438100 -12.987200 24.328600 0.000019 0.000005 3.414170 5.602030 -31.431000 22.291600 -0.000001 0.000005 8.884270 5.667410 -16.997400 12.994500 -0.242716 -4.980390 87.797100 6.450450 -71.098800 -5.348130 -0.000001 -0.000004 -63.290000 30.783300 -15.075300 -24.328900 0.000322 -0.000009 0.039114 0.102360 -21.427100 -22.291500 -0.000108 -0.000004 4.151630 5.578100 -10.110500 -2.192480 -6.469440 -0.000000 -168.691000 -19.831200 -2.568430 39.081100 -0.000007 -0.000012 -0.166168 0.388364 23.164700 40.985400 -0.000006 -0.000013 -5.625920 0.394515 -62.839000 11.754300 -0.000000 0.000003 -0.000090 -0.000937 -16.613600 -2.192510 6.469440 -0.000001 173.968000 23.866700 179.896000 -39.081100 -0.002282 -0.040193 -0.045420 0.133082 20.115200 -40.985400 0.000008 0.000006 -3.197960 4.017250 -62.161700 -11.754300 -0.000006 -0.000006 -0.003693 -0.048212 -18.534100
0.000000 0.000000 0.000000 0.000000 0.000000 -0.000000 -1.018790 92.101400 -3.164880 87.608300 -2.081250 5.366640 15.735700 0.000005 -0.000001 85.047100 84.096600 -84.370400 8.984550 -0.406207 -0.000000 4.003680 -1.040070 1.388190 16.377300 -0.000001 -0.000001 5.450570 -1.144640 1.969180 6.456720 -0.000001 -0.000000 3.720760 -0.100507 -2.540040 12.994200 -0.242716 4.980390 -90.201200 0.611534 -71.787000 5.348090 -0.000007 -0.000001 -59.820100 43.576700 -13.846100 24.328600 0.000019 0.000005 3.334420 5.099700 -33.242600 22.291600 -0.000001 0.000005 8.730320 5.669100 -17.244000 12.994500 -0.242716 -4.980390 87.816900 6.387120 -71.084700 -5.348130 -0.000001 -0.000004 -61.816400 30.180000 -16.364400 -24.328900 0.000322 -0.000009 0.145487 0.350900 -22.665800 -22.291500 -0.000108 -0.000004 4.323020 5.575600 -9.978730 -2.192480 -6.469440 -0.000000 -168.669000 -19.854300 -2.537650 39.081100 -0.000007 -0.000012 -0.166620 0.388515 23.212900 40.985400 -0.000006 -0.000013 -5.621050 0.366666 -62.849700 11.754300 -0.000000 0.000003 -0.000080 -0.000854 -16.610400 -2.192510 6.469440 -0.000001 173.927000 23.880300 179.948000 -39.081100 -0.002282 -0.040193 -0.048374 0.141125 20.118000 -40.985400 0.000008 0.000006 -3.263540 4.107710 -62.135700 -11.754300 -0.000006 -0.000006 -0.003529 -0.046449 -18.462300
0.000000 0.000000 0.000000 0.000000 0.000000 -0.000000 -1.009800 92.109700 -3.191780 87.595200 -2.114730 5.402200 15.735700 0.000005 -0.000001 85.075700 84.082500 -84.403600 8.984550 -0.406207 -0.000000 4.032330 -1.036310 1.379060 16.377300 -0.000001 -0.000001 5.481260 -1.156670 2.007000 6.456720 -0.000001 -0.000000 3.683460 -0.122196 -2.551420 12.994200 -0.242716 4.980390 -90.179500 0.544478 -71.758300 5.348090 -0.000007 -0.000001 -57.126300 46.229200 -15.006600 24.328600 0.000019 0.000005 3.549190 4.974540 -35.575100 22.291600 -0.000001 0.000005 8.748910 5.673560 -17.983400 12.994500 -0.242716 -4.980390 87.830800 6.326570 -71.030600 -5.348130 -0.000001 -0.000004 -60.119000 29.091900 -17.746300 -24.328900 0.000322 -0.000009 0.229841 0.502342 -24.692100 -22.291500 -0.000108 -0.000004 4.961360 5.569020 -9.639240 -2.192480 -6.469440 -0.000000 -168.650000 -19.871900 -2.483510 39.081100 -0.000007 -0.000012 -0.165155 0.385802 23.175100 40.985400 -0.000006 -0.000013 -5.603900 0.398731 -62.827300 11.754300 -0.000000 0.000003 -0.000098 -0.001008 -16.616200 -2.192510 6.469440 -0.000001 173.925000 23.961000 179.986000 -39.081100 -0.002282 -0.040193 -0.046075 0.135156 20.076200 -40.985400 0.000008 0.000006 -3.193030 4.152620 -62.090900 -11.754300 -0.000006 -0.000006 -0.003759 -0.048905 -18.562300
0.000000 0.000000 0.000000 0.000000 0.000000 -0.000000 -1.004030 92.113700 -3.255550 87.632700 -2.102330 5.371520 15.735700 0.000005 -0.000001 84.874500 84.099400 -84.244300 8.984550 -0.406207 -0.000000 3.994840 -1.073490 1.296390 16.377300 -0.000001 -0.000001 5.529030 -1.182310 2.089610 6.456720 -0.000001 -0.000000 3.650580 -0.108636 -2.541280 12.994200 -0.242716 4.980390 -90.129000 0.391735 -71.767700 5.348090 -0.000007 -0.000001 -53.997400 48.940700 -16.244700 24.328600 0.000019 0.000005 3.978540 4.966890 -38.775300 22.291600 -0.000001 0.000005 8.650620 5.676850 -18.669200 12.994500 -0.242716 -4.980390 87.827100 6.298300 -70.921700 -5.348130 -0.000001 -0.000004 -57.972800 27.913300 -19.454500 -24.328900 0.000322 -0.000009 0.040435 0.080924 -27.175000 -22.291500 -0.000108 -0.000004 5.412420 5.562730 -9.322170 -2.192480 -6.469440 -0.000000 -168.733000 -19.862500 -2.571410 39.081100 -0.000007 -0.000012 -0.163707 0.382713 23.159200 40.985400 -0.000006 -0.000013 -5.587670 0.337853 -62.770600 11.754300 -0.000000 0.000003 -0.000079 -0.000838 -16.609800 -2.192510 6.469440 -0.000001 173.914000 23.883900 179.919000 -39.081100 -0.002282 -0.040193 -0.047786 0.140086 20.043500 -40.985400 0.000008 0.000006 -3.376670 4.108040 -62.021600 -11.754300 -0.000006 -0.000006 -0.003828 -0.049638 -18.592200
